g lu05_r
v 3.338224E-06 -0.763448 -5.454546
v 3.274556E-06 -0.9668682 -6.545456
v 3.91769E-06 -2.466848 -6.545452
v 3.192496E-07 -2.263426 -5.454543
v 4.012664E-06 -0.5792279 -4.363634
v 9.936891E-07 -2.079208 -4.363633
v 2.855709E-06 -0.3794917 -3.272725
v 1.057438E-06 -1.879472 -3.272724
v 2.918682E-06 -0.1442469 -2.181815
v -1.002925E-07 -1.644227 -2.181815
v 2.983566E-06 0.00356797 -1.090906
v -3.540892E-08 -1.496413 -1.090907
v 3.051758E-06 3.917912E-13 2.441406E-06
v 3.278326E-08 -1.49998 2.641141E-06
v 2.63175E-06 -2.598447 -7.636353
v 2.598966E-06 -1.098468 -7.63636
v 6.838932E-06 -2.728184 -8.727264
v 3.144039E-06 -1.228204 -8.727271
v 6.77132E-06 -2.751175 -9.818178
v 3.076427E-06 -1.251194 -9.81818
v 6.092645E-06 -2.741567 -10.90908
v 6.059861E-06 -1.24159 -10.90908
v 3.581777E-06 -2.683993 -12.00142
v 4.159345E-06 -1.184016 -12.00142
v 3.511947E-06 -2.609598 -13.09376
v 4.699867E-06 -1.109618 -13.09377
v 2.22094E-06 -2.509387 -14.18467
v 2.798507E-06 -1.009408 -14.18468
v 4.591287E-06 -2.374664 -15.27558
v 2.727449E-06 -0.874684 -15.27559
v 4.519321E-06 -2.198421 -16.36649
v 4.486537E-06 -0.698442 -16.3665
v 4.446891E-06 -2.000943 -17.4574
v 4.414107E-06 -0.5009637 -17.45741
v 4.374315E-06 -1.796803 -18.54831
v 4.341532E-06 -0.2968228 -18.54832
v 2.471828E-06 -1.64498 -19.63922
v 2.439044E-06 -0.1449996 -19.63923
v 3.012046E-06 -1.552542 -20.73012
v 5.378554E-07 -0.05256196 -20.73013
v 4.163451E-06 -1.498419 -21.82103
v 2.909964E-06 0.00156112 -21.82104
v 4.095476E-06 -1.5048 -22.91194
v 4.062693E-06 -0.004819945 -22.91195
v 4.027257E-06 -1.499983 -24.00285
v 3.994473E-06 -3.196174E-06 -24.00286
v -12 -2.26343 -5.454537
v -12 -2.46685 -6.545447
v -11.99999 -0.9668702 -6.545454
v -12 -0.7634498 -5.454544
v -12 -2.07921 -4.363632
v -12 -0.57923 -4.363634
v -12 -1.879474 -3.272725
v -12 -0.3794938 -3.272728
v -12 -1.644229 -2.181815
v -12 -0.1442492 -2.181818
v -12 -1.496415 -1.090907
v -12 0.003565724 -1.090907
v -12 -1.499983 2.169694E-06
v -12 -2.245911E-06 1.969959E-06
v -12 -1.09847 -7.636353
v -12 -2.598448 -7.636346
v -12 -1.228206 -8.727264
v -12 -2.728184 -8.72726
v -12 -1.251197 -9.818176
v -12 -2.751176 -9.818172
v -12 -1.241592 -10.90908
v -12 -2.74157 -10.90908
v -12 -1.184017 -12.00142
v -12 -2.683997 -12.00142
v -12 -1.10962 -13.09377
v -12 -2.609601 -13.09376
v -12 -1.009409 -14.18468
v -12 -2.50939 -14.18467
v -12 -0.8746856 -15.27559
v -12 -2.374665 -15.27558
v -12 -0.6984439 -16.3665
v -12 -2.198422 -16.36649
v -12 -0.5009657 -17.45741
v -12 -2.000946 -17.4574
v -12 -0.2968248 -18.54832
v -12 -1.796805 -18.54831
v -12 -0.145002 -19.63922
v -12 -1.644982 -19.63922
v -12 -0.05256406 -20.73014
v -12 -1.552544 -20.73013
v -12 0.001559027 -21.82105
v -11.99999 -1.498422 -21.82104
v -11.99999 -0.004822191 -22.91196
v -11.99999 -1.504802 -22.91194
v -11.99999 -5.442085E-06 -24.00286
v -11.99999 -1.499986 -24.00285
v 3.278326E-08 -1.49998 2.641141E-06
v -12 -1.499983 2.169694E-06
v -12 -2.245911E-06 1.969959E-06
v 3.051758E-06 3.917912E-13 2.441406E-06
v 3.274556E-06 -0.9668682 -6.545456
v 3.338224E-06 -0.763448 -5.454546
v -12 -0.7634498 -5.454544
v -11.99999 -0.9668702 -6.545454
v 2.598966E-06 -1.098468 -7.63636
v -12 -1.09847 -7.636353
v 3.144039E-06 -1.228204 -8.727271
v -12 -1.228206 -8.727264
v 3.076427E-06 -1.251194 -9.81818
v -12 -1.251197 -9.818176
v 6.059861E-06 -1.24159 -10.90908
v -12 -1.241592 -10.90908
v 4.159345E-06 -1.184016 -12.00142
v -12 -1.184017 -12.00142
v -12 -0.57923 -4.363634
v 4.012664E-06 -0.5792279 -4.363634
v -12 -0.3794938 -3.272728
v 2.855709E-06 -0.3794917 -3.272725
v -12 -0.1442492 -2.181818
v 2.918682E-06 -0.1442469 -2.181815
v -12 0.003565724 -1.090907
v 2.983566E-06 0.00356797 -1.090906
v -12 -2.245911E-06 1.969959E-06
v 3.051758E-06 3.917912E-13 2.441406E-06
v 4.699867E-06 -1.109618 -13.09377
v -12 -1.10962 -13.09377
v 2.798507E-06 -1.009408 -14.18468
v -12 -1.009409 -14.18468
v 2.727449E-06 -0.874684 -15.27559
v -12 -0.8746856 -15.27559
v 4.486537E-06 -0.698442 -16.3665
v -12 -0.6984439 -16.3665
v 4.414107E-06 -0.5009637 -17.45741
v -12 -0.5009657 -17.45741
v 4.341532E-06 -0.2968228 -18.54832
v -12 -0.2968248 -18.54832
v 2.439044E-06 -0.1449996 -19.63923
v -12 -0.145002 -19.63922
v 5.378554E-07 -0.05256196 -20.73013
v -12 -0.05256406 -20.73014
v 2.909964E-06 0.00156112 -21.82104
v -12 0.001559027 -21.82105
v 4.062693E-06 -0.004819945 -22.91195
v -11.99999 -0.004822191 -22.91196
v 3.994473E-06 -3.196174E-06 -24.00286
v -11.99999 -5.442085E-06 -24.00286
v 3.994473E-06 -3.196174E-06 -24.00286
v -11.99999 -5.442085E-06 -24.00286
v -11.99999 -1.499986 -24.00285
v 4.027257E-06 -1.499983 -24.00285
vt 0.009414762 0.01552162
vt 0.009414762 0.01552162
vt 0.009414762 0.01552162
vt 0.009414762 0.01552162
vt 0.009414762 0.01552162
vt 0.009414762 0.01552162
vt 0.009414762 0.01552162
vt 0.009414762 0.01552162
vt 0.009414762 0.01552162
vt 0.009414762 0.01552162
vt 0.009414762 0.01552162
vt 0.009414762 0.01552162
vt 0.009414762 0.01552162
vt 0.009414762 0.01552162
vt 0.009414762 0.01552162
vt 0.009414762 0.01552162
vt 0.009414762 0.01552162
vt 0.009414762 0.01552162
vt 0.009414762 0.01552162
vt 0.009414762 0.01552162
vt 0.009414762 0.01552162
vt 0.009414762 0.01552162
vt 0.009414762 0.01552162
vt 0.009414762 0.01552162
vt 0.009414762 0.01552162
vt 0.009414762 0.01552162
vt 0.009414762 0.01552162
vt 0.009414762 0.01552162
vt 0.009414762 0.01552162
vt 0.009414762 0.01552162
vt 0.009414762 0.01552162
vt 0.009414762 0.01552162
vt 0.009414762 0.01552162
vt 0.009414762 0.01552162
vt 0.009414762 0.01552162
vt 0.009414762 0.01552162
vt 0.009414762 0.01552162
vt 0.009414762 0.01552162
vt 0.009414762 0.01552162
vt 0.009414762 0.01552162
vt 0.009414762 0.01552162
vt 0.009414762 0.01552162
vt 0.009414762 0.01552162
vt 0.009414762 0.01552162
vt 0.009414762 0.01552162
vt 0.009414762 0.01552162
vt 0.009414762 0.01552162
vt 0.009414762 0.01552162
vt 0.009414762 0.01552162
vt 0.009414762 0.01552162
vt 0.009414762 0.01552162
vt 0.009414762 0.01552162
vt 0.009414762 0.01552162
vt 0.009414762 0.01552162
vt 0.009414762 0.01552162
vt 0.009414762 0.01552162
vt 0.009414762 0.01552162
vt 0.009414762 0.01552162
vt 0.009414762 0.01552162
vt 0.009414762 0.01552162
vt 0.009414762 0.01552162
vt 0.009414762 0.01552162
vt 0.009414762 0.01552162
vt 0.009414762 0.01552162
vt 0.009414762 0.01552162
vt 0.009414762 0.01552162
vt 0.009414762 0.01552162
vt 0.009414762 0.01552162
vt 0.009414762 0.01552162
vt 0.009414762 0.01552162
vt 0.009414762 0.01552162
vt 0.009414762 0.01552162
vt 0.009414762 0.01552162
vt 0.009414762 0.01552162
vt 0.009414762 0.01552162
vt 0.009414762 0.01552162
vt 0.009414762 0.01552162
vt 0.009414762 0.01552162
vt 0.009414762 0.01552162
vt 0.009414762 0.01552162
vt 0.009414762 0.01552162
vt 0.009414762 0.01552162
vt 0.009414762 0.01552162
vt 0.009414762 0.01552162
vt 0.009414762 0.01552162
vt 0.009414762 0.01552162
vt 0.009414762 0.01552162
vt 0.009414762 0.01552162
vt 0.009414762 0.01552162
vt 0.009414762 0.01552162
vt 0.009414762 0.01552162
vt 0.009414762 0.01552162
vt 0.009414762 0.01552162
vt 0.009414762 0.01552162
vt 0.009414762 0.01552162
vt 0.009414762 0.01552162
vt -1.842397E-08 0.4545454
vt -2.528741E-08 0.5454545
vt 0.9999999 0.5454546
vt 0.9999999 0.4545456
vt -1.156053E-08 0.3636364
vt 0.9999999 0.3636364
vt -4.697078E-09 0.2727273
vt 0.9999999 0.2727274
vt 2.166367E-09 0.1818181
vt 1 0.1818182
vt 9.029812E-09 0.09090906
vt 1 0.09090912
vt 1.589326E-08 0
vt 1 5.960464E-08
vt 0.9999999 0.6363637
vt -3.215086E-08 0.6363636
vt 0.9999999 0.7272729
vt -3.90143E-08 0.7272727
vt 0.9999999 0.8181819
vt -4.587775E-08 0.8181818
vt 0.9999999 0.909091
vt -5.27412E-08 0.9090909
vt 0.9999999 1
vt -5.960464E-08 1
vt 0 -0.09090906
vt 1 -0.090909
vt 1.490116E-08 -0.1818182
vt 1 -0.1818181
vt 1.490116E-08 -0.2727273
vt 1 -0.2727271
vt 2.980232E-08 -0.3636364
vt 1 -0.3636363
vt 2.980232E-08 -0.4545455
vt 1 -0.4545454
vt 4.470348E-08 -0.5454546
vt 1 -0.5454544
vt 4.470348E-08 -0.6363636
vt 1 -0.6363636
vt 5.960464E-08 -0.7272727
vt 1 -0.7272726
vt 5.960464E-08 -0.8181819
vt 1 -0.8181818
vt 7.450581E-08 -0.9090909
vt 1 -0.9090909
vt 7.450581E-08 -1
vt 1 -0.9999999
vt 0.009414762 0.01552162
vt 0.009414762 0.01552162
vt 0.009414762 0.01552162
vt 0.009414762 0.01552162
vn 1 0 -4.061873E-07
vn 1 0 1.642446E-07
vn 1 0 2.721839E-07
vn 1 0 -2.749242E-07
vn 1 3.687622E-07 0
vn 1 2.314313E-07 -2.80624E-07
vn 1 5.767209E-07 2.775426E-07
vn 1 5.767209E-07 2.791446E-07
vn 1 2.465572E-07 0
vn 1 3.456244E-07 1.34454E-07
vn 1 0 0
vn 1 0 0
vn 1 0 0
vn 1 0 0
vn 1 6.688069E-07 6.658951E-07
vn 1 4.868346E-07 6.184029E-07
vn 1 1.741294E-06 2.546124E-07
vn 1 1.637702E-06 3.450115E-07
vn 1 1.678359E-06 4.513915E-07
vn 1 1.694225E-06 4.33549E-07
vn 1 5.908935E-07 -5.726106E-07
vn 1 5.630874E-07 -6.568955E-07
vn 1 0 -1.253092E-06
vn 1 0 -1.10963E-06
vn 1 0 -5.48396E-07
vn 1 0 -6.895212E-07
vn 1 4.811216E-07 -1.254272E-07
vn 1 6.716165E-07 3.125773E-07
vn 1 1.131587E-06 1.41683E-06
vn 1 1.131587E-06 1.441236E-06
vn 1 6.938624E-07 8.768202E-07
vn 1 4.545902E-07 5.423915E-07
vn 1 0 0
vn 1 0 0
vn 1 0 -7.288745E-07
vn 1 0 -1.086148E-06
vn 1 5.032546E-07 -1.182358E-06
vn 1 6.566248E-07 -1.004409E-06
vn 1 1.396058E-06 5.353124E-07
vn 1 1.42326E-06 6.369987E-07
vn 1 1.131067E-06 1.056804E-06
vn 1 1.132108E-06 1.057861E-06
vn 1 2.991613E-07 2.155567E-07
vn 1 2.994144E-07 2.158104E-07
vn 1 0 0
vn 1 0 0
vn -1 0 -9.005965E-07
vn -1 0 5.014641E-07
vn -1 0 -3.620529E-07
vn -1 0 -1.130151E-07
vn -1 -4.410063E-07 4.988116E-07
vn -1 -7.156686E-07 0
vn -1 -1.131585E-06 -6.207284E-07
vn -1 -1.131585E-06 -6.175239E-07
vn -1 -6.693929E-07 -3.313463E-07
vn -1 -4.712583E-07 -2.108555E-07
vn -1 0 0
vn -1 0 0
vn -1 0 0
vn -1 0 0
vn -1 0 1.362688E-06
vn -1 0 9.957098E-07
vn -1 -2.749133E-07 -1.791275E-07
vn -1 -3.267093E-07 -2.285712E-07
vn -1 -5.767198E-07 -4.843397E-07
vn -1 -5.767199E-07 -4.848359E-07
vn -1 -2.924712E-07 3.59668E-07
vn -1 -3.063746E-07 3.175244E-07
vn -1 0 1.17995E-06
vn -1 0 1.17995E-06
vn -1 0 -7.004813E-07
vn -1 0 -2.772877E-07
vn -1 -3.467358E-07 -1.284576E-06
vn -1 -2.514885E-07 -1.545779E-06
vn -1 -5.767206E-07 -6.893998E-07
vn -1 -5.767206E-07 -6.771962E-07
vn -1 -2.382227E-07 -2.399779E-07
vn -1 -3.578581E-07 -4.071922E-07
vn -1 0 0
vn -1 0 0
vn -1 0 7.44912E-07
vn -1 0 5.067295E-07
vn -1 0 5.413574E-07
vn -1 0 6.960057E-07
vn -1 -6.052016E-07 -5.274624E-07
vn -1 -5.507993E-07 -4.724488E-07
vn -1 -1.131586E-06 -1.054909E-06
vn -1 -1.131586E-06 -1.0549E-06
vn -1 -5.769728E-07 -4.940573E-07
vn -1 -5.764695E-07 -4.935528E-07
vn -1 0 0
vn -1 0 0
vn 0 1.331581E-07 1
vn 0 1.331581E-07 1
vn 0 1.331581E-07 1
vn 0 1.331581E-07 1
vn -2.115535E-07 0.9544574 -0.2983471
vn -1.766028E-07 0.9329394 -0.3600335
vn -1.766028E-07 0.9329394 -0.3600336
vn -2.115536E-07 0.9544574 -0.2983472
vn -2.264791E-07 0.9670195 -0.2547024
vn -2.264791E-07 0.9670195 -0.2547024
vn -1.893292E-07 0.9893429 -0.1456041
vn -1.893292E-07 0.9893429 -0.1456042
vn -1.72616E-07 0.9997481 -0.02244432
vn -1.72616E-07 0.9997481 -0.02244435
vn -1.903163E-07 0.9992262 0.0393333
vn -1.903163E-07 0.9992262 0.0393333
vn -1.888165E-07 0.9949253 0.1006167
vn -1.888165E-07 0.9949253 0.1006168
vn -1.349284E-07 0.9253936 -0.3790076
vn -1.349285E-07 0.9253936 -0.3790076
vn 0 0.9303398 -0.3666985
vn 0 0.9303398 -0.3666985
vn -1.116196E-07 0.9612526 -0.2756693
vn -1.116196E-07 0.9612526 -0.2756693
vn -1.694363E-07 0.996191 -0.08719739
vn -1.694363E-07 0.996191 -0.08719737
vn -1.874501E-07 0.9999946 0.003270623
vn -1.874501E-07 0.9999946 0.003270623
vn -1.884619E-07 0.9805093 0.1964729
vn -1.884619E-07 0.9805093 0.1964729
vn -1.857725E-07 0.9638677 0.2663816
vn -1.857725E-07 0.9638677 0.2663817
vn -1.633013E-07 0.9481686 0.3177678
vn -1.633013E-07 0.9481686 0.3177677
vn -1.515067E-07 0.9432424 0.3321053
vn -1.515067E-07 0.9432424 0.3321053
vn -1.733672E-07 0.9408865 0.3387221
vn -1.733672E-07 0.9408865 0.3387221
vn -1.804839E-07 0.9447395 0.3278224
vn -1.804839E-07 0.9447395 0.3278224
vn -1.779327E-07 0.9766103 0.2150169
vn -1.779327E-07 0.9766103 0.2150169
vn -1.801714E-07 0.9970495 0.07676128
vn -1.801714E-07 0.9970495 0.07676127
vn -1.771109E-07 0.9999989 -0.001473697
vn -1.771109E-07 0.9999989 -0.001473691
vn -1.835806E-07 0.9999998 -0.0007169862
vn -1.835806E-07 0.9999998 -0.000716989
vn -1.877863E-07 0.9999902 0.004415323
vn -1.877863E-07 0.9999902 0.004415323
vn 0 -1.331581E-07 -1
vn 0 -1.331581E-07 -1
vn 0 -1.331581E-07 -1
vn 0 -1.331581E-07 -1
g lu05_r_0
f 3/3/3 2/2/2 1/1/1
f 4/4/4 3/3/3 1/1/1
f 4/4/4 1/1/1 5/5/5
f 6/6/6 4/4/4 5/5/5
f 6/6/6 5/5/5 7/7/7
f 8/8/8 6/6/6 7/7/7
f 8/8/8 7/7/7 9/9/9
f 10/10/10 8/8/8 9/9/9
f 10/10/10 9/9/9 11/11/11
f 12/12/12 10/10/10 11/11/11
f 12/12/12 11/11/11 13/13/13
f 14/14/14 12/12/12 13/13/13
f 2/2/2 3/3/3 15/15/15
f 16/16/16 2/2/2 15/15/15
f 16/16/16 15/15/15 17/17/17
f 18/18/18 16/16/16 17/17/17
f 18/18/18 17/17/17 19/19/19
f 20/20/20 18/18/18 19/19/19
f 20/20/20 19/19/19 21/21/21
f 22/22/22 20/20/20 21/21/21
f 22/22/22 21/21/21 23/23/23
f 24/24/24 22/22/22 23/23/23
f 23/23/23 25/25/25 24/24/24
f 25/25/25 26/26/26 24/24/24
f 25/25/25 27/27/27 26/26/26
f 27/27/27 28/28/28 26/26/26
f 27/27/27 29/29/29 28/28/28
f 29/29/29 30/30/30 28/28/28
f 29/29/29 31/31/31 30/30/30
f 31/31/31 32/32/32 30/30/30
f 31/31/31 33/33/33 32/32/32
f 33/33/33 34/34/34 32/32/32
f 33/33/33 35/35/35 34/34/34
f 35/35/35 36/36/36 34/34/34
f 36/36/36 35/35/35 37/37/37
f 38/38/38 36/36/36 37/37/37
f 38/38/38 37/37/37 39/39/39
f 40/40/40 38/38/38 39/39/39
f 40/40/40 39/39/39 41/41/41
f 42/42/42 40/40/40 41/41/41
f 42/42/42 41/41/41 43/43/43
f 44/44/44 42/42/42 43/43/43
f 44/44/44 43/43/43 45/45/45
f 46/46/46 44/44/44 45/45/45
f 49/49/49 48/48/48 47/47/47
f 50/50/50 49/49/49 47/47/47
f 50/50/50 47/47/47 51/51/51
f 52/52/52 50/50/50 51/51/51
f 52/52/52 51/51/51 53/53/53
f 54/54/54 52/52/52 53/53/53
f 54/54/54 53/53/53 55/55/55
f 56/56/56 54/54/54 55/55/55
f 56/56/56 55/55/55 57/57/57
f 58/58/58 56/56/56 57/57/57
f 58/58/58 57/57/57 59/59/59
f 60/60/60 58/58/58 59/59/59
f 48/48/48 49/49/49 61/61/61
f 62/62/62 48/48/48 61/61/61
f 62/62/62 61/61/61 63/63/63
f 64/64/64 62/62/62 63/63/63
f 64/64/64 63/63/63 65/65/65
f 66/66/66 64/64/64 65/65/65
f 66/66/66 65/65/65 67/67/67
f 68/68/68 66/66/66 67/67/67
f 68/68/68 67/67/67 69/69/69
f 70/70/70 68/68/68 69/69/69
f 69/69/69 71/71/71 70/70/70
f 71/71/71 72/72/72 70/70/70
f 71/71/71 73/73/73 72/72/72
f 73/73/73 74/74/74 72/72/72
f 73/73/73 75/75/75 74/74/74
f 75/75/75 76/76/76 74/74/74
f 75/75/75 77/77/77 76/76/76
f 77/77/77 78/78/78 76/76/76
f 77/77/77 79/79/79 78/78/78
f 79/79/79 80/80/80 78/78/78
f 79/79/79 81/81/81 80/80/80
f 81/81/81 82/82/82 80/80/80
f 82/82/82 81/81/81 83/83/83
f 84/84/84 82/82/82 83/83/83
f 84/84/84 83/83/83 85/85/85
f 86/86/86 84/84/84 85/85/85
f 86/86/86 85/85/85 87/87/87
f 88/88/88 86/86/86 87/87/87
f 88/88/88 87/87/87 89/89/89
f 90/90/90 88/88/88 89/89/89
f 90/90/90 89/89/89 91/91/91
f 92/92/92 90/90/90 91/91/91
f 95/95/95 94/94/94 93/93/93
f 96/96/96 95/95/95 93/93/93
f 99/99/99 98/98/98 97/97/97
f 100/100/100 99/99/99 97/97/97
f 100/100/100 97/97/97 101/101/101
f 102/102/102 100/100/100 101/101/101
f 102/102/102 101/101/101 103/103/103
f 104/104/104 102/102/102 103/103/103
f 104/104/104 103/103/103 105/105/105
f 106/106/106 104/104/104 105/105/105
f 106/106/106 105/105/105 107/107/107
f 108/108/108 106/106/106 107/107/107
f 108/108/108 107/107/107 109/109/109
f 110/110/110 108/108/108 109/109/109
f 98/98/98 99/99/99 111/111/111
f 112/112/112 98/98/98 111/111/111
f 112/112/112 111/111/111 113/113/113
f 114/114/114 112/112/112 113/113/113
f 114/114/114 113/113/113 115/115/115
f 116/116/116 114/114/114 115/115/115
f 116/116/116 115/115/115 117/117/117
f 118/118/118 116/116/116 117/117/117
f 118/118/118 117/117/117 119/119/119
f 120/120/120 118/118/118 119/119/119
f 109/109/109 121/121/121 110/110/110
f 121/121/121 122/122/122 110/110/110
f 121/121/121 123/123/123 122/122/122
f 123/123/123 124/124/124 122/122/122
f 123/123/123 125/125/125 124/124/124
f 125/125/125 126/126/126 124/124/124
f 125/125/125 127/127/127 126/126/126
f 127/127/127 128/128/128 126/126/126
f 127/127/127 129/129/129 128/128/128
f 129/129/129 130/130/130 128/128/128
f 130/130/130 129/129/129 131/131/131
f 132/132/132 130/130/130 131/131/131
f 132/132/132 131/131/131 133/133/133
f 134/134/134 132/132/132 133/133/133
f 134/134/134 133/133/133 135/135/135
f 136/136/136 134/134/134 135/135/135
f 136/136/136 135/135/135 137/137/137
f 138/138/138 136/136/136 137/137/137
f 138/138/138 137/137/137 139/139/139
f 140/140/140 138/138/138 139/139/139
f 140/140/140 139/139/139 141/141/141
f 142/142/142 140/140/140 141/141/141
f 145/145/145 144/144/144 143/143/143
f 146/146/146 145/145/145 143/143/143
